<svg width="48" height="48" viewBox="0 0 48 48" fill="currentColor" xmlns="http://www.w3.org/2000/svg">
    <path
        d="M46.0374 38.3855C46.1233 38.3864 46.2083 38.3696 46.2874 38.3362C46.3665 38.3028 46.4378 38.2535 46.4971 38.1914C46.5563 38.1293 46.6021 38.0557 46.6317 37.9751C46.6613 37.8945 46.674 37.8088 46.6691 37.7231C46.6691 37.2532 46.3856 37.0288 45.8041 37.0288H44.8644V39.4886H45.2179V38.4163H45.6522L45.6621 38.4294L46.336 39.4886H46.714L45.9889 38.3923L46.0374 38.3855ZM45.6287 38.1391H45.2189V37.3075H45.7383C46.0066 37.3075 46.3125 37.3514 46.3125 37.7027C46.3125 38.1068 46.003 38.1391 45.6266 38.1391M36.8185 35.303H31.807V27.4548C31.807 25.5833 31.7736 23.1742 29.2005 23.1742C26.5904 23.1742 26.191 25.2132 26.191 27.3186V35.3024H21.1796V19.1635H25.9906V21.369H26.0579C26.5394 20.5458 27.2351 19.8686 28.071 19.4095C28.9069 18.9504 29.8517 18.7267 30.8047 18.762C35.884 18.762 36.8205 22.103 36.8205 26.4494L36.8185 35.303ZM15.525 16.9574C14.9498 16.9575 14.3875 16.787 13.9092 16.4676C13.4309 16.1481 13.0581 15.6939 12.8379 15.1626C12.6176 14.6312 12.5599 14.0465 12.6721 13.4823C12.7842 12.9182 13.0611 12.3999 13.4677 11.9931C13.8744 11.5863 14.3925 11.3093 14.9566 11.197C15.5207 11.0846 16.1055 11.1421 16.6369 11.3621C17.1684 11.5822 17.6226 11.9548 17.9423 12.433C18.2619 12.9112 18.4326 13.4735 18.4327 14.0487C18.4328 14.4306 18.3576 14.8088 18.2115 15.1616C18.0654 15.5145 17.8513 15.8351 17.5813 16.1052C17.3113 16.3753 16.9907 16.5896 16.6379 16.7358C16.2851 16.882 15.9069 16.9573 15.525 16.9574ZM18.0307 35.303H13.0141V19.1635H18.0307V35.303ZM39.3169 6.48711H10.4958C9.84165 6.47972 9.21132 6.73235 8.74333 7.18947C8.27535 7.6466 8.00798 8.27082 8 8.92497V37.8656C8.00771 38.5201 8.2749 39.1447 8.74287 39.6023C9.21085 40.0599 9.84133 40.313 10.4958 40.3061H39.3169C39.9727 40.3143 40.6049 40.0619 41.0747 39.6043C41.5445 39.1467 41.8135 38.5214 41.8226 37.8656V8.92288C41.8133 8.26743 41.5441 7.6425 41.0743 7.18539C40.6044 6.72828 39.9723 6.47637 39.3169 6.48502" />
    <path
        d="M45.6715 35.933C45.0618 35.9389 44.4792 36.186 44.0512 36.6202C43.6231 37.0545 43.3845 37.6406 43.3874 38.2503C43.3903 38.8601 43.6346 39.4438 44.0668 39.874C44.499 40.3041 45.0839 40.5455 45.6937 40.5455C46.3034 40.5455 46.8884 40.3041 47.3206 39.874C47.7528 39.4438 47.997 38.8601 48 38.2503C48.0029 37.6406 47.7643 37.0545 47.3362 36.6202C46.9082 36.186 46.3256 35.9389 45.7159 35.933H45.6715ZM45.6715 40.2815C45.2716 40.2882 44.8787 40.1761 44.5424 39.9594C44.2062 39.7428 43.9418 39.4313 43.7826 39.0644C43.6234 38.6974 43.5766 38.2915 43.6481 37.898C43.7196 37.5045 43.9062 37.141 44.1842 36.8535C44.4623 36.566 44.8194 36.3674 45.2103 36.2828C45.6013 36.1983 46.0085 36.2316 46.3805 36.3784C46.7526 36.5253 47.0727 36.7792 47.3004 37.1081C47.5281 37.4369 47.6532 37.8258 47.6599 38.2258V38.2597C47.6711 38.7843 47.4735 39.2919 47.1105 39.6709C46.7475 40.0498 46.2489 40.2691 45.7242 40.2805H45.672" />
</svg>